<svg width="168" height="52" viewBox="0 0 168 52" fill="none" xmlns="http://www.w3.org/2000/svg">
<g clip-path="url(#clip0)">
<path d="M114.527 44.1615H116.666V45.5096C116.666 46.1857 116.666 46.8597 117.702 46.8597C118.739 46.8597 118.758 46.1693 118.758 45.1326C118.758 44.3131 118.592 43.9648 118.032 43.5858L115.984 42.2192C114.896 41.4796 114.599 40.6724 114.599 39.4882C114.599 38.5806 114.681 37.7098 115.439 37.085C115.867 36.7223 116.656 36.3945 117.776 36.3945C119.026 36.3945 120.737 36.9047 120.737 38.8961V40.0475H118.624V39.2075C118.624 38.6482 118.624 38.0233 117.688 38.0233C117.11 38.0233 116.701 38.2282 116.701 39.1747C116.701 40.1459 116.905 40.361 117.375 40.6724L119.481 42.1065C119.92 42.4073 120.295 42.7932 120.583 43.2416C120.897 43.7681 120.897 44.1287 120.897 45.067C120.897 46.1058 120.897 46.747 120.517 47.3555C119.876 48.3922 118.542 48.5069 117.754 48.5069C115.926 48.5069 114.527 47.8165 114.527 45.8599V44.1615Z" fill="#152733"/>
<path d="M123.24 36.624H128.868V38.4003H125.385V41.1334H128.663V42.8953H125.385V46.4664H129.022V48.257H123.24V36.624Z" fill="#152733"/>
<path d="M131.327 36.6321H133.449V48.2507H131.327V36.6321Z" fill="#152733"/>
<path d="M135.724 44.1615H137.863V45.5096C137.863 46.1857 137.863 46.8597 138.901 46.8597C139.94 46.8597 139.954 46.1693 139.954 45.1326C139.954 44.3131 139.788 43.9648 139.229 43.5858L137.18 42.2192C136.094 41.4796 135.799 40.6724 135.799 39.4882C135.799 38.5806 135.881 37.7098 136.637 37.085C137.066 36.7223 137.854 36.3945 138.975 36.3945C140.227 36.3945 141.938 36.9047 141.938 38.8961V40.0475H139.823V39.2075C139.823 38.6482 139.823 38.0233 138.883 38.0233C138.309 38.0233 137.897 38.2282 137.897 39.1747C137.897 40.1459 138.102 40.361 138.571 40.6724L140.678 42.1065C141.117 42.4073 141.492 42.7932 141.78 43.2416C142.093 43.7681 142.093 44.1287 142.093 45.067C142.093 46.1058 142.093 46.747 141.714 47.3555C141.073 48.3922 139.739 48.5069 138.95 48.5069C137.123 48.5069 135.724 47.8165 135.724 45.8599V44.1615Z" fill="#152733"/>
<path d="M144.439 36.6404H147.912L149.295 44.7699L150.661 36.6404H154.099V48.257H151.974L152.179 38.1872L150.305 48.257H148.297L146.387 38.1872L146.553 48.257H144.439V36.6404Z" fill="#152733"/>
<path d="M156.404 36.6404H158.529V48.257H156.404V36.6404Z" fill="#152733"/>
<path d="M165.036 40.8875V39.4042C165.036 38.5335 164.886 38.0397 163.95 38.0397C163.013 38.0397 162.962 38.7793 162.962 39.3059V45.528C162.962 46.2205 163.077 46.8433 164.03 46.8433C165.036 46.8433 165.036 46.1201 165.036 45.4092V43.8951H167.158V45.5341C167.158 46.4704 167.158 48.4946 163.997 48.4946C163.382 48.4946 162.419 48.3799 161.743 47.9374C160.821 47.3227 160.821 46.4233 160.821 45.78V39.4718C160.821 38.5335 160.872 37.8901 161.399 37.3165C162.237 36.4109 163.554 36.3945 163.997 36.3945C167.158 36.3945 167.158 38.2692 167.158 39.0928V40.8875H165.036Z" fill="#152733"/>
<path d="M105.897 40.3201H109.641C109.643 39.5792 109.426 38.8541 109.017 38.2366C108.607 37.6192 108.024 37.1372 107.34 36.8517C106.656 36.5662 105.903 36.49 105.176 36.6328C104.449 36.7756 103.781 37.131 103.256 37.6539C102.731 38.1768 102.373 38.8437 102.227 39.5702C102.082 40.2967 102.155 41.05 102.438 41.7348C102.721 42.4196 103.2 43.0051 103.816 43.417C104.432 43.829 105.156 44.0489 105.897 44.0489V40.3201Z" fill="#152733"/>
<path d="M106.621 44.7904H102.88C102.877 45.5313 103.095 46.2563 103.505 46.8735C103.914 47.4907 104.498 47.9724 105.182 48.2576C105.866 48.5427 106.619 48.6184 107.346 48.4752C108.073 48.332 108.741 47.9763 109.266 47.4531C109.79 46.9299 110.148 46.2628 110.293 45.5362C110.438 44.8097 110.365 44.0563 110.081 43.3717C109.798 42.6871 109.318 42.1019 108.702 41.6903C108.086 41.2787 107.362 41.0592 106.621 41.0596V44.7904Z" fill="#F1592A"/>
<path d="M79.0358 48.1054V36.7777H80.3408V40.9593H80.4515C80.5478 40.8118 80.6809 40.6233 80.8612 40.3918C81.0628 40.1374 81.3155 39.928 81.6029 39.7771C82.0102 39.5758 82.4623 39.482 82.9162 39.5046C83.5859 39.4916 84.2442 39.6784 84.8072 40.0414C85.3681 40.4169 85.8108 40.9441 86.0836 41.5616C86.695 43.0544 86.695 44.7277 86.0836 46.2205C85.8112 46.8387 85.3703 47.3676 84.8113 47.7469C84.2546 48.1104 83.6014 48.2982 82.9366 48.2857C82.484 48.3071 82.0334 48.2126 81.6275 48.0112C81.3342 47.8621 81.0759 47.6526 80.8694 47.3965C80.6932 47.163 80.556 46.9683 80.4597 46.8147H80.306V48.1198L79.0358 48.1054ZM80.3122 43.8583C80.3011 44.4357 80.397 45.0101 80.5949 45.5526C80.7555 46.0036 81.0394 46.4004 81.4144 46.6979C81.8123 46.9699 82.284 47.1136 82.766 47.1095C83.248 47.1055 83.7173 46.954 84.1106 46.6754C84.4899 46.3687 84.777 45.9631 84.9404 45.5035C85.1316 44.9785 85.226 44.4231 85.219 43.8644C85.2273 43.3129 85.135 42.7644 84.9465 42.2459C84.7871 41.7943 84.503 41.3972 84.127 41.1006C83.7278 40.8092 83.2421 40.6606 82.7482 40.6786C82.2693 40.6643 81.799 40.8083 81.4103 41.0883C81.0345 41.3731 80.7497 41.7611 80.5908 42.2049C80.3977 42.7344 80.3032 43.2948 80.3122 43.8583Z" fill="#152733"/>
<path d="M89.0562 51.2687C88.8576 51.2705 88.6593 51.2526 88.4641 51.2155C88.3411 51.1951 88.2208 51.1607 88.1056 51.113L88.4375 49.9637C88.8236 50.0893 89.2397 50.0893 89.6258 49.9637C89.9427 49.8366 90.2158 49.4556 90.4453 48.8204L90.6891 48.1566L87.5483 39.6173H88.964L91.3079 46.3783H91.398L93.7418 39.6173L95.1759 39.6419L91.5578 49.3511C91.4193 49.7417 91.2156 50.1061 90.9555 50.4287C90.731 50.7024 90.4464 50.9205 90.1237 51.0659C89.7863 51.2087 89.4224 51.2778 89.0562 51.2687Z" fill="#152733"/>
<path d="M27.003 0H36.4048C41.4858 0 44.9954 2.352 44.9954 7.77307C44.9954 13.3519 41.9837 15.8002 36.6261 15.8002H33.1432V24.2617H26.9968V0H27.003ZM33.1493 10.8442H34.1737C36.4007 10.8442 38.595 10.8442 38.595 7.96156C38.595 4.98468 36.5585 4.9519 34.1737 4.9519H33.1493L33.1637 10.8442H33.1493Z" fill="#152733"/>
<path d="M62.8976 16.6586H50.8917C50.8917 18.9778 52.121 20.2214 54.4546 20.2214C55.6838 20.2214 56.5566 19.8117 57.1835 18.7504H62.6681C61.7564 22.5406 58.1608 24.2637 54.473 24.2637C49.1298 24.2637 45.1633 21.2581 45.1633 15.7141C45.1633 10.3709 48.8307 7.12561 54.0714 7.12561C59.6503 7.12561 62.8812 10.5737 62.8812 16.0603L62.8996 16.6586H62.8976ZM57.5994 13.36C57.4434 12.6265 57.0351 11.9709 56.4454 11.5074C55.8558 11.0439 55.1223 10.802 54.3726 10.8237C52.711 10.8237 51.3302 11.6985 50.988 13.36H57.5994Z" fill="#152733"/>
<path d="M70.5272 9.97956H70.5866C71.6847 8.00863 73.5655 7.13176 75.7926 7.13176H76.8784V12.6143C76.1367 12.2208 75.3011 12.0387 74.4629 12.0878C71.2975 12.0878 70.5169 14.1775 70.5169 16.9372V24.2637H64.8152V7.12561H70.5169L70.5272 9.97956Z" fill="#152733"/>
<path d="M90.6154 12.893C89.7795 12.2114 88.7467 11.8164 87.6693 11.7661C87.1524 11.7584 86.6393 11.8545 86.1603 12.0487C85.6813 12.2429 85.2462 12.5313 84.8807 12.8968C84.5152 13.2623 84.2268 13.6975 84.0325 14.1765C83.8383 14.6555 83.7422 15.1686 83.75 15.6854C83.75 18.0088 85.4136 19.6375 87.7656 19.6375C88.8166 19.6256 89.8282 19.2358 90.6154 18.5394V23.3561C89.367 23.9666 87.9936 24.278 86.6039 24.2657C81.8405 24.2657 77.8577 20.7234 77.8577 15.8657C77.8577 10.6926 81.8098 7.1195 86.8539 7.1195C88.1671 7.10929 89.4615 7.43288 90.6154 8.05989V12.893Z" fill="#152733"/>
<path d="M111.079 15.7141C111.079 21.168 106.571 24.2637 101.392 24.2637C96.2127 24.2637 91.7095 21.1905 91.7095 15.7141C91.7095 10.2377 96.2168 7.12561 101.392 7.12561C106.567 7.12561 111.079 10.2316 111.079 15.7141ZM97.7268 15.7141C97.7268 17.7629 99.0728 19.32 101.392 19.32C103.711 19.32 105.061 17.7526 105.061 15.7141C105.061 13.7411 103.715 12.0796 101.392 12.0796C99.0687 12.0796 97.7268 13.7411 97.7268 15.7141Z" fill="#152733"/>
<path d="M118.317 24.2719L112.617 24.2637V0H118.317V24.2719Z" fill="#152733"/>
<path d="M138.678 24.2637H132.978V21.9444H132.913C131.909 23.5445 129.936 24.2637 128.055 24.2637C123.291 24.2637 119.936 20.2849 119.936 15.6752C119.936 11.0654 123.226 7.12561 127.993 7.12561C129.837 7.12561 131.784 7.81605 132.98 9.22766V7.12561H138.68V24.2637H138.678ZM125.828 15.7141C125.828 17.7629 127.174 19.32 129.493 19.32C131.812 19.32 133.171 17.7444 133.171 15.708C133.171 13.7329 131.823 12.0734 129.503 12.0734C127.184 12.0734 125.828 13.7268 125.828 15.708V15.7141Z" fill="#152733"/>
<path d="M146.346 24.2616H140.647V2.28027H146.346V7.12564H149.553V11.8092H146.346V24.2616Z" fill="#152733"/>
<path d="M167.898 16.6586H155.892C155.892 18.9778 157.121 20.2214 159.455 20.2214C160.684 20.2214 161.557 19.8117 162.184 18.7504H167.668C166.761 22.5406 163.161 24.2637 159.473 24.2637C154.13 24.2637 150.163 21.2581 150.163 15.7141C150.163 10.3709 153.833 7.12561 159.071 7.12561C164.65 7.12561 167.881 10.5737 167.881 16.0603L167.9 16.6586H167.898ZM162.599 13.36C162.443 12.6265 162.035 11.9709 161.445 11.5074C160.856 11.0439 160.122 10.802 159.373 10.8237C157.711 10.8237 156.332 11.6985 155.988 13.36H162.599Z" fill="#152733"/>
<path fill-rule="evenodd" clip-rule="evenodd" d="M9.93863 24.2596C7.33473 24.2601 4.83465 23.2386 2.97606 21.4149C1.11747 19.5912 0.0488466 17.1109 0 14.5074C0 8.27707 9.93659 0 9.93659 0C9.93659 0 19.8732 8.27707 19.8732 14.5074C19.8233 17.1109 18.754 19.5909 16.8952 21.4144C15.0364 23.238 12.5364 24.2596 9.93249 24.2596H9.93863Z" fill="#F1592A"/>
</g>
<defs>
<clipPath id="clip0">
<rect width="168" height="51.4244" fill="white"/>
</clipPath>
</defs>
</svg>
