<svg width="1241" height="320" viewBox="0 0 1241 320" fill="none" xmlns="http://www.w3.org/2000/svg">
<path d="M568.377 212.45C558.05 212.455 547.766 211.122 537.782 208.484C500.751 198.75 465.068 182.696 430.559 167.172C412.047 158.844 392.899 150.206 373.835 142.734L373.129 142.465C352.341 134.314 330.805 125.831 308.413 125.662C292.233 125.555 275.755 126.538 259.815 127.492L251.251 128.001C240.201 128.638 228.945 129.415 218.042 130.179C189.977 132.13 160.951 134.152 132.405 133.911V133.204C160.923 133.438 189.935 131.423 217.986 129.472C228.874 128.715 240.13 127.931 251.195 127.295L259.766 126.786C275.713 125.831 292.226 124.849 308.399 124.955C330.932 125.096 352.525 133.593 373.404 141.808L374.111 142.076C393.188 149.577 412.351 158.194 430.87 166.528C465.33 182.038 500.962 198.085 537.959 207.834C580.085 218.904 616.014 204.667 654.049 189.602L655.215 189.143C696.719 172.7 739.637 155.691 784.738 160.619C811.785 163.581 836.374 174.658 860.158 185.361C866.708 188.316 873.484 191.369 880.224 194.218C913.723 208.357 950.635 212.775 999.911 208.526C1007.68 207.855 1015.71 207.219 1023.45 206.611C1069.14 203.005 1116.38 199.273 1159.82 184.618C1187.5 175.287 1214.79 161.212 1236.71 149.909C1241.89 147.237 1247.12 144.48 1252.19 141.815C1269.85 132.54 1288.05 122.954 1306.88 115.298C1349.11 98.12 1392.3 86.7033 1428.99 77.8315C1520.97 55.5071 1620.19 39.0006 1750.71 24.3038C1880.64 9.59315 2011.24 1.48148 2141.99 0V0.706917C2011.27 2.17031 1880.7 10.2631 1750.8 24.9542C1620.31 39.6439 1521.16 56.1504 1429.17 78.4678C1392.51 87.3608 1349.33 98.7704 1307.16 115.934C1288.36 123.583 1270.15 133.162 1252.53 142.43C1247.47 145.095 1242.22 147.852 1237.05 150.524C1215.14 161.834 1187.8 175.923 1160.03 185.276C1116.48 199.958 1069.2 203.691 1023.47 207.303C1015.7 207.911 1007.72 208.54 999.925 209.219C950.529 213.461 913.518 209.049 879.906 194.855C873.159 192.027 866.383 188.952 859.826 185.997C836.092 175.301 811.552 164.238 784.617 161.297C739.693 156.391 696.854 173.357 655.434 189.772L654.268 190.231C625.666 201.57 598.209 212.45 568.377 212.45Z" fill="#FABE8A"/>
<path d="M972.108 223.032C933.345 223.032 897.578 214.648 865.619 198.064C860.49 195.406 855.268 192.578 850.216 189.842C825.147 176.277 799.222 162.273 770.267 159.961C724.566 156.342 681.309 175.04 639.458 193.123L630.605 196.947C593.778 212.831 558.994 227.839 517.864 215.716C481.376 204.963 446.401 188.033 412.584 171.661C395.223 163.298 377.312 154.581 359.414 146.869L354.701 144.826C335.341 136.414 313.402 126.877 291.816 126.708C278.087 126.602 264.005 127.909 250.389 129.182C246.546 129.535 242.568 129.889 238.674 130.235C226.196 131.296 213.492 132.554 201.226 133.77C173.669 136.506 145.173 139.326 117.08 140.132V139.425C145.145 138.633 173.606 135.813 201.162 133.063C213.45 131.847 226.154 130.589 238.646 129.528C242.532 129.196 246.51 128.821 250.354 128.468C263.984 127.195 278.073 125.888 291.851 125.994C313.557 126.163 335.567 135.728 354.991 144.169L359.711 146.212C377.601 153.931 395.548 162.619 412.902 171.017C446.704 187.375 481.652 204.292 518.083 215.03C558.965 227.047 593.637 212.124 630.344 196.29L639.204 192.472C681.125 174.354 724.488 155.621 770.345 159.247C799.449 161.545 825.458 175.612 850.569 189.206C855.621 191.942 860.843 194.763 865.966 197.428C900.722 215.461 940.022 223.767 982.777 222.099C1029.71 220.275 1082.92 218.204 1130.41 202.411C1155.71 193.992 1179.87 181.55 1203.3 169.526L1203.89 169.222C1263.44 138.605 1318.31 116.981 1376.55 101.167C1492.43 69.6949 1611.14 53.146 1701.58 42.2453C1826.3 27.2398 1951.73 18.8369 2077.33 17.072V17.7789C1951.75 19.5448 1826.34 27.9523 1701.64 42.9664C1611.2 53.86 1492.56 70.4018 1376.72 101.86C1318.53 117.659 1263.67 139.27 1204.2 169.865L1203.6 170.169C1180.19 182.187 1155.97 194.657 1130.61 203.09C1083.03 218.918 1027.45 221.081 982.784 222.82C979.204 222.962 975.645 223.032 972.108 223.032Z" fill="#FABE8A"/>
<path d="M978.029 234.322C974.256 234.322 970.447 234.322 966.568 234.237C927.092 233.65 888.562 222.276 852.039 200.425C848.089 198.064 844.034 195.576 840.112 193.165C812.287 176.093 783.516 158.434 750.596 158.208C705.912 157.89 663.906 177.259 623.292 195.971L618.056 198.389C615.277 199.662 612.503 200.946 609.733 202.242C591.468 210.725 572.581 219.476 552.995 225.139C531.564 231.331 515.765 228.822 497.225 222.764C461.458 211.078 427.352 193.285 394.369 176.107C377.411 167.264 359.888 158.123 342.414 149.951L336.521 147.18C318.15 138.471 297.25 128.602 276.801 128.305C263.256 128.107 249.181 129.79 235.587 131.423C231.347 131.925 227.023 132.448 222.805 132.9C210.39 134.222 197.764 135.763 185.554 137.248C159.057 140.479 131.656 143.815 104.58 145.201V144.494C131.628 143.08 158.987 139.779 185.505 136.548C197.714 135.064 210.341 133.522 222.762 132.201C227.002 131.748 231.326 131.225 235.537 130.723C249.16 129.09 263.249 127.393 276.844 127.598C297.455 127.895 318.39 137.799 336.86 146.537L342.746 149.308C360.241 157.48 377.771 166.627 394.729 175.464C427.691 192.656 461.769 210.435 497.479 222.12C515.893 228.136 531.579 230.603 552.839 224.488C572.362 218.833 591.228 210.089 609.472 201.627C612.251 200.336 615.025 199.051 617.795 197.774L623.031 195.364C663.398 176.757 705.135 157.529 749.593 157.529H750.638C783.749 157.756 812.612 175.464 840.522 192.592C844.436 194.996 848.492 197.484 852.435 199.845C888.852 221.633 927.261 232.972 966.618 233.558C1026.02 234.435 1073 228.546 1110.23 215.532C1133.68 207.332 1156.25 195.781 1178.06 184.604L1184.99 181.07C1236.99 154.428 1291.67 133.378 1348.11 118.274C1535.32 68.0337 1750.39 43.1078 2005.62 42.0898V42.7968C1750.46 43.8147 1535.45 68.7335 1348.3 118.96C1291.9 134.038 1237.25 155.062 1185.29 181.678C1182.98 182.851 1180.67 184.029 1178.36 185.212C1156.52 196.396 1133.92 207.961 1110.43 216.175C1075.55 228.334 1032.14 234.322 978.029 234.322Z" fill="#FABE8A"/>
<path d="M975.506 244.459C969.241 244.459 962.854 244.348 956.344 244.127C917.758 242.826 878.826 228.744 837.328 201.089C834.799 199.402 832.246 197.687 829.669 195.943C801.462 176.941 769.497 155.401 734.083 156.865C688.742 158.745 646.32 179.309 605.289 199.195L595.877 203.747L587.928 207.593C569.183 216.691 549.773 226.1 529.657 232.286C512.155 237.665 497.578 237.057 477.681 230.123C442.395 217.829 409.143 199.018 376.923 180.886C360.728 171.745 343.983 162.294 327.251 153.839C325.131 152.758 322.934 151.634 320.708 150.488C303.044 141.383 282.97 131.069 263.595 130.384C250.17 129.896 235.94 131.911 222.197 133.848C217.802 134.47 213.259 135.113 208.899 135.643C196.76 137.128 184.424 138.845 172.489 140.5C146.89 144.034 120.422 147.738 94.229 149.379L94.1866 148.672C120.33 147.032 146.805 143.349 172.391 139.793C184.325 138.139 196.668 136.421 208.807 134.936C213.16 134.406 217.703 133.763 222.098 133.141C235.869 131.197 250.114 129.182 263.624 129.67C283.153 130.377 303.277 140.719 321.033 149.852C323.252 150.997 325.43 152.112 327.569 153.196C344.315 161.679 361.068 171.116 377.269 180.264C409.433 198.41 442.691 217.172 477.914 229.451C497.656 236.329 512.105 236.93 529.452 231.607C549.54 225.436 568.9 216.055 587.624 206.95C590.276 205.663 592.926 204.381 595.573 203.104L604.985 198.552C646.079 178.631 688.566 158.038 734.055 156.137C769.688 154.659 801.766 176.27 830.065 195.342C832.646 197.072 835.199 198.785 837.724 200.482C879.108 228.051 917.913 242.105 956.372 243.398C1010.22 245.215 1056 239.496 1092.46 226.432C1113.9 218.734 1134.69 208.335 1154.8 198.283L1162.71 194.338C1213.12 169.106 1266.04 149.225 1320.59 135.021C1481.47 93.108 1662.16 72.5933 1871.33 72.5933C1890.3 72.5933 1909.49 72.7629 1928.9 73.1022V73.8092C1695.1 69.7656 1496.19 90.0117 1320.78 135.707C1266.27 149.893 1213.4 169.75 1163.02 194.953L1155.11 198.905C1134.99 208.965 1114.17 219.37 1092.7 227.09C1060.57 238.627 1021.21 244.459 975.506 244.459Z" fill="#FABE8A"/>
<path d="M970.998 253.309C961.474 253.309 951.881 252.947 942.219 252.221C894.292 248.609 853.191 222.997 822.688 201.09L819.346 198.686C789.479 177.167 755.641 152.786 717.719 155.988C671.601 159.876 628.521 181.437 586.861 202.263C582.205 204.589 577.577 206.907 572.977 209.177L566.618 212.322C547.823 221.654 528.385 231.296 508.233 238.111C485.969 245.632 471.668 242.897 451.523 234.802C419.141 221.781 388.695 203.338 359.252 185.502C342.93 175.605 326.042 165.39 309.085 156.236L304.407 153.698C287.372 144.423 268.054 133.904 248.934 133.197C235.784 132.724 221.83 134.83 208.334 136.866C204.236 137.488 200.003 138.124 195.948 138.662C184.332 140.21 172.511 141.998 161.085 143.723C136.298 147.47 110.664 151.351 85.2696 153.012L85.2272 152.305C110.586 150.644 136.207 146.77 160.979 143.023C172.412 141.299 184.233 139.489 195.856 137.962C199.905 137.425 203.946 136.817 208.228 136.166C221.759 134.123 235.784 132.017 248.962 132.49C268.252 133.197 287.64 143.752 304.746 153.062C306.324 153.924 307.883 154.77 309.424 155.599C326.382 164.789 343.297 174.99 359.626 184.88C389.041 202.701 419.459 221.131 451.792 234.131C471.774 242.161 485.955 244.876 508.014 237.425C528.123 230.632 547.533 220.996 566.314 211.679C568.429 210.628 570.548 209.58 572.673 208.533C577.27 206.257 581.898 203.95 586.557 201.613C628.245 180.744 671.41 159.198 717.662 155.267C755.818 152.044 789.804 176.51 819.763 198.099L823.112 200.503C853.495 222.361 894.532 247.902 942.283 251.507C989.899 255.098 1036.96 249.697 1074.82 236.308C1095.73 228.914 1116.09 219.088 1135.79 209.587L1144.31 205.48C1192.69 182.119 1243.38 163.931 1295.57 151.217C1456.58 112.011 1637.74 97.9857 1849.39 108.328V109.035C1637.81 98.6856 1456.72 112.711 1295.78 151.902C1243.64 164.607 1192.98 182.778 1144.65 206.116L1136.13 210.223C1116.42 219.731 1096.04 229.564 1075.09 236.98C1044.77 247.704 1008.62 253.309 970.998 253.309Z" fill="#FABE8A"/>
<path d="M960.682 261.361C949.575 261.375 938.476 260.764 927.438 259.53C884.16 254.624 846.478 229.953 812.202 204.016L808.245 201.019C779.276 179.02 743.191 151.655 704.81 155.465C656.763 160.237 611.81 183.035 568.363 205.077C563.181 207.706 558.033 210.298 552.917 212.853L545.851 216.387C526.668 226.037 506.834 236.018 486.336 243.25L482.874 244.593C475.321 247.357 466.793 250.489 459.133 250.248C451.361 250.022 441.815 245.929 434.17 242.635C433.025 242.147 431.923 241.667 430.877 241.221C399.251 227.917 369.9 208.752 341.517 190.217C327.23 180.893 312.462 171.251 297.638 162.513C295.886 161.481 294.103 160.421 292.289 159.332C274.66 148.813 254.678 136.88 234.668 136.661C221.815 136.52 208.454 138.478 195.538 140.372C192.401 140.832 189.292 141.284 186.218 141.708C174.567 143.306 162.725 145.194 151.271 147.017C126.993 150.877 101.888 154.871 76.9886 156.412L76.9462 155.705C101.811 154.171 126.901 150.177 151.137 146.318C162.597 144.494 174.454 142.606 186.098 141.009C189.172 140.584 192.281 140.132 195.411 139.673C208.362 137.771 221.759 135.82 234.654 135.954C254.855 136.18 274.929 148.156 292.629 158.731C294.442 159.81 296.225 160.868 297.977 161.905C312.815 170.65 327.59 180.285 341.884 189.63C370.239 208.145 399.562 227.295 431.125 240.571C432.177 241.009 433.287 241.49 434.431 241.985C442.013 245.251 451.453 249.315 459.161 249.534C466.623 249.739 475.144 246.643 482.641 243.879C483.842 243.441 485.015 243.01 486.132 242.614C506.622 235.361 526.406 225.4 545.569 215.751L552.634 212.216C557.75 209.657 562.894 207.042 568.073 204.44C611.549 182.384 656.536 159.544 704.739 154.758C743.424 150.92 779.594 178.383 808.669 200.453C809.998 201.464 811.319 202.468 812.626 203.451C846.825 229.324 884.407 253.939 927.516 258.823C970.624 263.708 1018.44 258.696 1058.54 245.06C1079.59 237.899 1100.19 228.398 1120.1 219.208C1124.19 217.323 1128.28 215.438 1132.37 213.552C1177.2 193.106 1224.11 177.578 1272.28 167.242C1416.32 135.94 1578.83 128.991 1769.09 145.978L1769.03 146.685C1578.84 129.719 1416.4 136.647 1272.43 167.935C1224.3 178.252 1177.43 193.763 1132.64 214.196C1128.55 216.081 1124.46 217.966 1120.38 219.851C1100.44 229.041 1079.84 238.563 1058.76 245.731C1028.67 255.967 994.245 261.361 960.682 261.361Z" fill="#FABE8A"/>
<path d="M951.758 268.035C938.616 268.067 925.491 267.105 912.494 265.157C869.668 258.611 833.484 232.42 797.117 203.839C768.677 181.48 729.724 150.863 688.396 156.108C639.685 162.287 594.033 185.361 549.907 207.671C544.254 210.541 538.355 213.51 532.631 216.359L524.661 220.346C504.17 230.61 482.973 241.221 461.069 248.842C441.285 255.706 428.842 255.268 409.758 247.018C378.859 233.657 350.688 213.899 323.435 194.784C309.184 184.788 294.466 174.446 279.55 165.206L275.784 162.859C259.631 152.779 241.359 141.383 222.713 140.676C210.496 140.217 197.693 142.09 185.307 143.942C182.396 144.374 179.393 144.812 176.489 145.215C164.724 146.827 152.769 148.749 141.209 150.672C117.497 154.546 92.9784 158.561 68.6227 159.862L68.5874 159.155C92.9007 157.869 117.398 153.86 141.096 149.965C152.663 148.071 164.618 146.12 176.425 144.508C179.322 144.105 182.325 143.667 185.229 143.235C197.651 141.397 210.496 139.503 222.769 139.962C241.607 140.669 259.956 152.15 276.151 162.273L279.91 164.62C294.819 173.873 309.586 184.215 323.831 194.218C351.048 213.305 379.191 233.049 410.033 246.382C428.927 254.547 441.271 254.992 460.829 248.191C482.733 240.585 503.93 229.981 524.371 219.724L532.349 215.744C538.065 212.916 543.944 209.926 549.617 207.056C593.821 184.717 639.529 161.615 688.361 155.451C729.985 150.17 769.066 180.9 797.604 203.323C833.894 231.847 869.993 257.982 912.649 264.5C954.648 270.919 1003.09 266.458 1045.59 252.27C1066.51 245.279 1087.13 236.336 1107.06 227.691C1111.95 225.57 1116.84 223.449 1121.74 221.329C1161.67 204.249 1203.66 191.843 1250.1 183.395C1318.73 170.911 1390.67 165.376 1470.04 166.486C1537.57 167.426 1609.56 173.223 1690.14 184.215L1690.05 184.922C1516.81 161.297 1377.03 161.036 1250.23 184.102C1203.84 192.536 1161.91 204.928 1122.02 221.986C1117.13 224.078 1112.24 226.199 1107.35 228.348C1087.39 237.001 1066.75 245.943 1045.8 252.949C1015.45 262.925 983.705 268.017 951.758 268.035Z" fill="#FABE8A"/>
<path d="M941.379 274.149C927.262 274.171 913.165 273.11 899.21 270.975C856.448 264.344 819.628 234.696 787.126 208.484L783.325 205.416C750.871 179.302 712.808 151.931 671.742 157.883C622.133 165.072 575.393 188.28 530.201 210.718C523.135 214.21 515.893 217.822 508.799 221.272L502.27 224.46C480.959 234.866 458.921 245.625 436.148 253.253C415.99 260.004 403.165 259.17 383.374 249.817C355.245 236.527 329.78 217.582 305.149 199.273C292.48 189.85 279.387 180.108 266.125 171.293L263.108 169.278C247.033 158.54 228.811 146.367 209.705 145.392C197.043 144.748 183.773 146.692 170.935 148.573C168.257 148.969 165.6 149.357 162.979 149.718C152.048 151.224 140.941 153.062 130.201 154.836C107.089 158.653 83.1853 162.612 59.4231 163.566V162.859C83.1429 161.891 107.018 157.946 130.081 154.136C140.835 152.362 151.942 150.524 162.88 149.018C165.501 148.658 168.158 148.269 170.829 147.88C183.703 145.992 197.015 144.034 209.74 144.685C229.044 145.674 247.351 157.904 263.503 168.72L266.521 170.735C279.79 179.557 292.897 189.305 305.573 198.728C330.169 217.023 355.606 235.941 383.678 249.209C403.271 258.47 415.969 259.297 435.965 252.61C458.688 244.996 480.705 234.23 501.994 223.852L508.53 220.664C515.596 217.221 522.888 213.595 529.918 210.117C575.139 187.651 621.957 164.415 671.671 157.211C713.027 151.224 751.232 178.687 783.805 204.9L787.606 207.961C820.017 234.117 856.752 263.701 899.33 270.304C941.541 276.85 988.168 273.167 1030.62 259.94C1051.46 253.444 1072.08 245.187 1092.03 237.206C1097.31 235.085 1102.76 232.908 1108.14 230.787C1144.35 216.521 1182.05 206.66 1223.39 200.637C1363.21 180.25 1505.9 200.899 1614.58 221.138L1614.45 221.845C1505.82 201.591 1363.21 180.957 1223.49 201.344C1182.21 207.36 1144.55 217.207 1108.4 231.452C1103.02 233.572 1097.57 235.757 1092.29 237.87C1072.33 245.859 1051.69 254.129 1030.82 260.619C1001.85 269.57 971.699 274.131 941.379 274.149Z" fill="#FABE8A"/>
<path d="M931.43 280.731C914.199 280.816 897.009 279.036 880.161 275.422C840.812 266.734 808.521 240.232 777.297 214.592C774.443 212.235 771.617 209.914 768.819 207.629C735.044 180.137 698.331 155.394 658.741 160.534C607.868 167.143 559.538 190.288 512.812 212.676C504.955 216.444 496.822 220.332 488.915 224.036C486.089 225.358 483.263 226.694 480.394 228.03C457.989 238.57 434.82 249.464 410.888 256.858C390.998 263.008 378.584 262.082 359.782 253.048C333.009 240.182 309.155 221.484 286.093 203.401C274.081 193.999 261.709 184.279 249.096 175.542L248.496 175.124C232.895 164.309 215.209 152.058 196.047 150.877C182.756 150.057 168.822 152.058 155.348 153.995L148.551 154.956C138.369 156.37 128.01 158.06 118.005 159.707C95.3949 163.432 72.0284 167.278 48.7609 167.928V167.221C71.9648 166.578 95.3172 162.732 117.892 159.014C127.912 157.36 138.27 155.656 148.459 154.256L155.256 153.295C168.766 151.351 182.735 149.35 196.096 150.17C215.456 151.365 233.227 163.679 248.906 174.545L249.506 174.962C262.133 183.706 274.54 193.434 286.538 202.843C309.572 220.904 333.391 239.602 360.092 252.412C378.937 261.46 390.758 262.344 410.683 256.187C434.566 248.806 457.713 237.92 480.097 227.394L488.59 223.386C496.497 219.689 504.623 215.793 512.48 212.033C559.255 189.623 607.62 166.444 658.621 159.827C698.479 154.652 735.341 179.479 769.236 207.077C772.062 209.368 774.888 211.7 777.714 214.04C808.882 239.624 841.101 266.076 880.288 274.722C920.365 283.566 967.904 281.275 1014.21 268.254C1034.84 262.457 1055.35 255.034 1075.19 247.859C1080.99 245.738 1087 243.618 1092.9 241.497C1126.75 229.471 1161.92 221.521 1197.65 217.815C1250.82 212.16 1307.99 213.496 1372.44 221.859C1432.67 229.677 1493.26 242.967 1544.54 254.942L1544.38 255.649C1439.06 231.063 1316.73 205.897 1197.72 218.536C1162.05 222.237 1126.95 230.177 1093.15 242.19C1087.24 244.31 1081.25 246.431 1075.44 248.552C1055.6 255.734 1035.06 263.157 1014.42 268.961C986.593 276.772 958.294 280.731 931.43 280.731Z" fill="#FABE8A"/>
<path d="M924.202 287.256C901.945 287.256 880.549 284.591 861.055 279.26C823.734 269.045 793.549 244.063 764.353 219.879C760.403 216.606 756.319 213.227 752.341 209.983C722.771 185.912 682.941 159.148 636.971 165.963C586.805 173.385 538.941 195.067 492.611 216.027C483.927 219.957 474.946 224.015 466.192 227.875L459.126 230.985C436.078 241.179 412.245 251.712 387.706 258.689C367.3 264.486 353.083 263.489 335.334 254.992C310.159 242.974 288.099 224.962 266.761 207.558C255.456 198.368 243.797 188.825 231.849 180.349C215.937 169.038 198.809 157.975 179.718 157.141C166.293 156.547 152.536 158.363 139.196 160.117L136.991 160.406C126.251 161.82 115.327 163.616 104.764 165.355C82.2243 169.087 58.9285 172.933 35.7528 173.195V172.488C58.879 172.205 82.1466 168.359 104.651 164.648C115.214 162.902 126.145 161.113 136.899 159.7L139.104 159.41C152.472 157.649 166.293 155.833 179.746 156.427C199.028 157.275 216.262 168.444 232.259 179.755C244.228 188.238 255.908 197.774 267.213 206.992C288.516 224.368 310.54 242.338 335.638 254.356C353.232 262.761 367.292 263.751 387.508 258.01C412.005 251.047 435.816 240.521 458.872 230.342L465.938 227.224C474.699 223.372 483.673 219.307 492.357 215.383C538.729 194.402 586.677 172.707 636.901 165.263C683.146 158.413 723.145 185.269 752.822 209.431C756.835 212.704 760.926 216.083 764.876 219.328C794.008 243.441 824.136 268.367 861.316 278.539C900.962 289.39 948.487 289.143 995.128 277.903C1016.11 272.842 1037.05 266.225 1057.31 259.82C1064.15 257.699 1071.21 255.43 1078.17 253.288C1111.11 243.107 1145.15 236.959 1179.57 234.979C1279.1 229.126 1378.11 255.77 1473.88 281.537L1482.17 283.771L1481.99 284.477L1473.7 282.251C1377.99 256.498 1279.03 229.868 1179.61 235.714C1145.25 237.688 1111.26 243.826 1078.38 253.995C1071.42 256.116 1064.36 258.364 1057.52 260.527C1037.25 266.932 1016.3 273.548 995.29 278.617C972.017 284.286 948.155 287.186 924.202 287.256Z" fill="#FABE8A"/>
<path d="M1429.18 306.554C1418 303.395 1406.52 300.065 1395.42 296.848C1315.91 273.796 1233.7 249.952 1151.33 254.575C1111.65 256.802 1073.14 266.387 1035.9 275.655C1015.84 280.646 995.093 285.813 974.298 289.793C928.837 298.517 883.277 296.594 842.529 284.23C806.91 273.428 778.181 249.591 750.398 226.51C745.049 222.071 739.517 217.476 734.048 213.079C694.119 180.935 656.325 167.709 618.608 172.657C568.441 179.225 520.146 199.485 473.427 219.074C463.804 223.103 453.855 227.274 444.147 231.218C438.544 233.488 432.785 235.976 426.687 238.613C400.127 250.093 371.009 262.648 343.227 262.648C332.433 262.775 321.738 260.586 311.862 256.229C287.661 245.35 266.86 228.094 246.751 211.411C235.7 202.221 224.281 192.769 212.475 184.512C198.59 174.792 183.378 165.616 166.3 164.238C151.942 163.086 136.942 165.044 122.436 166.938L120.175 167.235C109.654 168.6 98.9772 170.367 88.6259 172.064C66.1497 175.796 42.9034 179.628 19.7842 179.712V179.005C42.8822 178.921 66.0932 175.096 88.5482 171.399C98.8925 169.695 109.583 167.928 120.118 166.564L122.379 166.267C136.92 164.365 151.956 162.4 166.392 163.559C183.639 164.973 198.944 174.163 212.92 183.961C224.748 192.239 236.18 201.719 247.231 210.894C267.312 227.549 288.078 244.777 312.187 255.614C348.18 271.788 389.762 253.818 426.44 237.941C432.545 235.304 438.303 232.816 443.914 230.54C453.622 226.623 463.514 222.453 473.152 218.437C519.92 198.827 568.271 178.553 618.516 171.972C656.473 167.023 694.409 180.271 734.486 212.542C739.962 216.953 745.502 221.548 750.85 225.973C778.576 248.997 807.249 272.799 842.705 283.566C883.34 295.894 928.787 297.81 974.128 289.108C994.902 285.114 1015.64 279.918 1035.69 274.969C1072.97 265.688 1111.51 256.095 1151.26 253.868C1233.75 249.238 1316.02 273.096 1395.59 296.17C1406.68 299.386 1418.2 302.716 1429.33 305.876L1429.18 306.554Z" fill="#FABE8A"/>
<path d="M1388.24 320C1374.93 316.465 1361.2 312.627 1347.96 308.916C1275.84 288.761 1201.25 267.914 1127.25 274.418C1093.53 277.387 1059.79 283.898 1027.16 290.196C1001.01 295.244 973.938 300.468 947.038 303.833C902.474 309.403 858.412 303.833 816.096 287.199C784.377 274.75 759.697 254.547 733.574 233.155C727.971 228.567 722.185 223.831 716.376 219.222C680.122 190.479 643.38 177.98 604.038 180.971C553.249 184.873 503.704 203.67 455.742 221.859C444.988 225.931 433.838 230.151 423.048 234.074C417.813 235.969 412.506 237.991 406.889 240.125C379.58 250.51 349.656 261.884 320.92 261.884C309.198 261.884 297.673 259.997 286.58 255.388C263.906 245.958 244.631 230.179 225.984 214.924C215.562 206.398 204.787 197.576 193.574 190.005C154.712 163.778 108.58 172.007 63.9522 179.967C42.6701 183.798 20.6674 187.715 0 187.715V187.008C20.5967 187.008 42.5642 183.091 63.8109 179.302C108.58 171.314 154.874 163.043 193.948 189.447C205.19 197.032 215.986 205.868 226.451 214.408C245.041 229.628 264.26 245.371 286.87 254.759C324.919 270.579 368.338 254.052 406.656 239.496C412.308 237.376 417.587 235.34 422.829 233.438C433.647 229.515 444.733 225.301 455.516 221.223C503.492 203.019 553.108 184.201 604.003 180.292C643.571 177.259 680.433 189.807 716.807 218.671C722.615 223.28 728.402 228.016 734.005 232.604C760.085 253.96 784.724 274.135 816.343 286.542C858.547 303.105 902.489 308.689 946.939 303.126C973.789 299.768 1000.86 294.551 1027.01 289.504C1059.66 283.198 1093.43 276.68 1127.17 273.718C1201.29 267.215 1275.94 288.061 1348.15 308.216C1361.42 311.927 1375.14 315.758 1388.42 319.293L1388.24 320Z" fill="#FABE8A"/>
</svg>
